<svg xmlns="http://www.w3.org/2000/svg" width="384" height="512" fill="none" viewBox="0 0 384 512"><g clip-path="url(#a)"><path fill="#E0E3EB" d="M256 0v128h128z"/><g filter="url(#b)"><path fill="#fff" d="M263 128a7 7 0 0 1-7-7V0H48C21.49 0 0 21.49 0 48v416c0 26.5 21.49 48 48 48h288c26.51 0 48-21.49 48-48V128z"/></g><path fill="#059669" fill-rule="evenodd" d="M43.3 309.699c-3.616 0-6.575-2.959-6.575-6.575v-13.15c0-3.617 2.959-6.576 6.575-6.576h6.576a39.3 39.3 0 0 1 25.793 9.605c2.31 1.998 5.876 1.998 8.186 0a39.3 39.3 0 0 1 25.793-9.605h6.576c3.616 0 6.575 2.959 6.575 6.576v13.15c0 3.616-2.959 6.575-6.575 6.575h-6.576a13.084 13.084 0 0 0-13.15 13.151v26.301c0 7.315 5.835 13.15 13.15 13.15h6.576c3.616 0 6.575 2.959 6.575 6.575v13.151c0 3.616-2.959 6.575-6.575 6.575h-6.576a39.3 39.3 0 0 1-25.793-9.605c-2.31-1.998-5.876-1.998-8.186 0a39.3 39.3 0 0 1-25.793 9.605H43.3c-3.616 0-6.575-2.959-6.575-6.575v-13.151c0-3.616 2.959-6.575 6.575-6.575h6.576c7.315 0 13.15-5.835 13.15-13.15V322.85a13.085 13.085 0 0 0-13.15-13.151zm107.444-26.301s8.219.001 8.219 6.576v58.766c0 7.315 5.835 13.15 13.15 13.15h6.575c3.617 0 6.575 2.959 6.575 6.575v13.151c0 3.616-2.958 6.575-6.575 6.575h-6.575c-21.78 0-39.451-17.671-39.451-39.451v-58.766c0-6.574 6.575-6.576 6.575-6.576zm56.382 105.204h10.109c19.151 0 34.767-14.301 34.829-31.75 0-8.729-4.007-17.153-10.891-23.112l-17.983-15.411c-1.13-1.027-1.746-2.157-1.746-3.185 0-2.568 3.599-5.445 8.531-5.445h10.027c3.616 0 6.575-2.959 6.575-6.575v-13.15c0-3.596-2.979-6.576-6.575-6.576h-10.027c-19.233 0-34.849 14.302-34.849 31.726 0 8.794 4.028 17.178 10.87 23.136l17.983 15.411c1.13 1.027 1.747 2.158 1.747 3.185 0 2.568-3.6 5.445-8.532 5.445h-10.068c-3.616 0-6.575 2.959-6.575 6.575v13.151c0 3.595 2.979 6.575 6.575 6.575m61.375-78.903c-3.616 0-6.575-2.959-6.575-6.575v-13.15c0-3.617 2.959-6.576 6.575-6.576h6.576a39.3 39.3 0 0 1 25.793 9.605c2.31 1.998 5.876 1.998 8.186 0a39.3 39.3 0 0 1 25.794-9.605h6.575c3.616 0 6.575 2.959 6.575 6.576v13.15c0 3.616-2.959 6.575-6.575 6.575h-6.575a13.085 13.085 0 0 0-13.151 13.151v26.301c0 7.315 5.836 13.15 13.151 13.15h6.575c3.616 0 6.575 2.959 6.575 6.575v13.151c0 3.616-2.959 6.575-6.575 6.575h-6.575a39.3 39.3 0 0 1-25.794-9.605c-2.31-1.998-5.876-1.998-8.186 0a39.3 39.3 0 0 1-25.793 9.605h-6.576c-3.616 0-6.575-2.959-6.575-6.575v-13.151c0-3.616 2.959-6.575 6.575-6.575h6.576c7.315 0 13.15-5.835 13.15-13.15V322.85a13.084 13.084 0 0 0-13.15-13.151z" clip-rule="evenodd"/></g><defs><clipPath id="a"><path fill="#fff" d="M0 0h384v512H0z"/></clipPath><filter id="b" width="424" height="552" x="-20" y="-12" color-interpolation-filters="sRGB" filterUnits="userSpaceOnUse"><feFlood flood-opacity="0" result="BackgroundImageFix"/><feColorMatrix in="SourceAlpha" result="hardAlpha" values="0 0 0 0 0 0 0 0 0 0 0 0 0 0 0 0 0 0 127 0"/><feMorphology in="SourceAlpha" radius="8" result="effect1_dropShadow_1259_604700"/><feOffset dy="8"/><feGaussianBlur stdDeviation="14"/><feColorMatrix values="0 0 0 0 0.238646 0 0 0 0 0.281585 0 0 0 0 0.419688 0 0 0 0.2 0"/><feBlend in2="BackgroundImageFix" result="effect1_dropShadow_1259_604700"/><feBlend in="SourceGraphic" in2="effect1_dropShadow_1259_604700" result="shape"/></filter></defs></svg>